# xmcd CD database file
#
# Track frame offsets:
#	150
#	16893
#	39043
#	55438
#	69046
#	90377
#	114062
#	134162
#	146727
#	169363
#	182083
#
# Disc length: 2682 seconds
#
# Revision: 3
# Processed by: cddbd v1.5.2PL0 Copyright (c) Steve Scherf et al.
# Submitted via: CDex 1.70beta2
#
DISCID=8d0a780b
DTITLE=Harry Manx, 1955-  and Kevin Breit - In Good We Trust
DYEAR=2007
DGENRE=Folk Canada 2001-2020
TTITLE0=I'm On Fire
TTITLE1=Sometimes
TTITLE2=Bottom Of The Hill
TTITLE3=Better Man's Waltz
TTITLE4=Death Have Mercy
TTITLE5=Steal 6
TTITLE6=Ship Of Fools
TTITLE7=In Good We Trust
TTITLE8=Hang On
TTITLE9=Don't Swim, Float
TTITLE10=Sisters
EXTD=YEAR: 2007
EXTT0=
EXTT1=
EXTT2=
EXTT3=
EXTT4=
EXTT5=
EXTT6=
EXTT7=
EXTT8=
EXTT9=
EXTT10=
PLAYORDER=
